<svg xmlns="http://www.w3.org/2000/svg" xmlns:xlink="http://www.w3.org/1999/xlink" preserveAspectRatio="xMidYMid" width="16" height="14" viewBox="0 0 16 14">
  <defs>
    <style>

      .cls-2 {
        fill: #ffffff;
      }
    </style>
  </defs>
  <path d="M7.036,13.773 C7.036,13.773 10.582,9.881 11.238,8.037 C11.301,7.974 13.941,8.037 13.941,8.037 C14.334,8.037 16.000,7.671 16.000,7.000 C16.000,6.328 14.334,5.963 13.941,5.963 C13.941,5.963 11.238,5.963 11.238,5.963 C11.238,5.963 10.553,5.037 10.553,5.037 C9.117,2.133 7.036,0.226 7.036,0.226 C6.940,0.095 6.752,-0.000 6.589,-0.000 C6.589,-0.000 5.421,-0.000 5.421,-0.000 C5.234,-0.000 5.094,0.131 5.094,0.308 C5.094,0.361 5.107,0.413 5.132,0.465 C5.132,0.465 7.191,4.701 7.191,4.701 C7.218,4.756 7.225,4.871 7.225,4.933 C7.225,4.933 7.225,5.963 7.225,5.963 C7.225,5.963 2.372,5.963 2.372,5.963 C2.371,5.963 2.369,5.978 2.368,5.978 C2.356,5.966 2.343,5.962 2.331,5.952 C2.331,5.952 1.439,5.263 1.439,5.263 C1.359,5.200 1.230,5.166 1.126,5.177 C1.126,5.177 0.276,5.270 0.276,5.270 C0.139,5.285 0.040,5.390 0.040,5.520 C0.040,5.589 0.069,5.656 0.122,5.709 C0.122,5.709 0.860,6.448 0.860,6.448 C0.862,6.451 0.867,6.454 0.867,6.457 C0.867,6.457 0.867,6.459 0.867,6.459 C0.008,6.753 -0.000,6.848 -0.000,7.000 C-0.000,7.154 0.039,7.250 0.861,7.543 C0.861,7.543 0.121,8.284 0.121,8.284 C0.068,8.337 0.039,8.383 0.039,8.469 C0.039,8.469 0.038,8.469 0.038,8.469 C0.038,8.642 0.137,8.707 0.274,8.721 C0.274,8.721 1.122,8.816 1.122,8.816 C1.226,8.828 1.360,8.791 1.438,8.730 C1.438,8.730 2.331,8.036 2.331,8.036 C2.343,8.028 2.354,8.032 2.366,8.021 C2.368,8.021 2.370,8.037 2.372,8.037 C2.372,8.037 7.225,8.037 7.225,8.037 C7.225,8.037 7.225,9.067 7.225,9.067 C7.225,9.129 7.218,9.244 7.191,9.299 C7.191,9.299 5.122,13.535 5.122,13.535 C5.097,13.587 5.089,13.639 5.089,13.692 C5.089,13.868 5.234,14.000 5.420,14.000 C5.420,14.000 6.589,14.000 6.589,14.000 C6.752,14.000 6.940,13.905 7.036,13.773 Z" id="path-1" class="cls-2" fill-rule="evenodd"/>
</svg>
